<svg id="Capa_1" data-name="Capa 1" xmlns="http://www.w3.org/2000/svg" viewBox="0 0 790.84 430.82"><defs><style>.cls-1{fill:#fff;}.cls-2{fill:#ad1f24;}</style></defs><title>logo_BopIT</title><path d="M796.51,299.73v10.72c-.17,1.17-.31,2.34-.51,3.5a52,52,0,0,1-47.59,43.2c-15.55,1.05-29-4-40.3-14.79-.38-.37-.78-.72-1.23-1.14a68.28,68.28,0,0,1-29.79,6c1,6.77,2.34,13.27,3.33,19.9L504.09,397.51c-3-16.87-5.73-33.56-8.68-50.26h-1.84q-160.45,0-320.92,0a72.92,72.92,0,0,0-10.83.9,76.83,76.83,0,0,0-28.21,10.62,127,127,0,0,0-26.28,21.58A247.88,247.88,0,0,0,83.5,410.22c-3.78,5.42-7.49,10.88-11.35,16.25a54.77,54.77,0,0,1-4.29,4.74H66.43a15.31,15.31,0,0,1-.73-3.08,46.87,46.87,0,0,1,.12-6.6c.91-8.46,1.92-16.91,2.9-25.36q1.35-11.61,2.7-23.23t2.64-23.06q1.34-11.61,2.7-23.22,1.39-12,2.77-23.94c.25-2.23.48-4.46.75-7L42,302.32c-.11-.52-.18-.8-.23-1.08l-2.25-13.38Q36.73,271.5,34,255.14t-5.51-32.73l-5.61-33.08-5.19-30.61q-2.58-15.22-5.14-30.45-2.79-16.46-5.57-32.9a62.9,62.9,0,0,1-1.26-11.7,14.83,14.83,0,0,1,4-10.24,36,36,0,0,1,5.18-4.62Q44.75,47.42,74.76,26.15a18.3,18.3,0,0,1,4.41-2.29,12.07,12.07,0,0,1,15.13,6A18.76,18.76,0,0,1,96,34.93c2.82,15.63,5.56,31.28,8.34,46.92a5.28,5.28,0,0,0,.3.9,19.94,19.94,0,0,0,.73-4.24c.27-3.91.39-7.84.74-11.75a67.09,67.09,0,0,1,5.39-21.54c4.48-10,11.39-17.79,21.37-22.61a53,53,0,0,1,23.36-5q53.13-.06,106.26,0,82.59,0,165.18,0A7.48,7.48,0,0,0,432,16.33c7.62-5,15.28-9.91,22.93-14.86.53-.34,1.09-.65,1.81-1.07,1,5.85,2,11.48,3,17.19H689.56a19.06,19.06,0,0,0,3.2-.22q22.34-3.82,44.65-7.69c1.69-.29,3.38-.54,5.2-.83.55,3.05,1.07,5.95,1.59,8.8,2.16.32,4.18.53,6.15.93,14.44,2.9,25.48,10.57,32.52,23.6,6.16,11.4,7.28,23.63,5.25,36.25-1.56,9.63-11.75,159.36-12.53,165.86-.64,5.31-1.25,10.63-1.93,15.94a2.43,2.43,0,0,0,1.1,2.53,69.49,69.49,0,0,1,7.3,6.27c8,8.37,13,18.26,14.15,29.91A3.72,3.72,0,0,0,796.51,299.73Zm-739-19.31,60-10.32-1.32-8a83.24,83.24,0,0,0,74.11-16.55,83.58,83.58,0,0,0,8.42-120.68,82,82,0,0,0-41.39-24.72c-23.88-5.85-46.19-1.75-67,11.61C86.47,90,82.63,68.4,78.76,46.62c-.74.49-1.24.79-1.71,1.13Q51.54,65.93,26,84.09a2.68,2.68,0,0,0-1.23,3.1c2,11.6,4,23.22,5.94,34.83q3.12,18.47,6.23,37,3.32,19.62,6.65,39.24L49.79,235q3.15,18.65,6.31,37.3C56.55,274.92,57,277.55,57.51,280.42ZM471.9,201.07c18.71,4.5,36.66,3,54-4.79a82.08,82.08,0,0,0,39.57-37,83.19,83.19,0,0,0-8.06-91,81.66,81.66,0,0,0-39.86-27.72c-25.2-8-49-4.56-71.53,9.51-1.06-6.11-2.09-12-3.16-18.19L386,68.61q16.28,94.77,32.5,189.28l61.31-10.54C477.17,231.88,474.56,216.65,471.9,201.07ZM224.68,151.44a83.78,83.78,0,0,0,82.94,83.66c46.89.3,83.38-37.49,84.2-82A83.57,83.57,0,0,0,309.39,68C261.64,67.38,224.93,106,224.68,151.44Zm419,108.4,41.2-7.34-21.56-48.86-28.43,5c-3.84-22.35-7.66-44.53-11.51-66.88-.58.37-.94.57-1.27.81Q595.19,162.32,568.24,182a2,2,0,0,0-.91,2.23q3.95,22.68,7.81,45.38,6,34.74,12,69.47,5.1,29.64,10.17,59.28c.25,1.5.55,3,.86,4.61l61.46-10.58Zm23.17-219.7q18.54,107.85,37,215.36L765,245l-37-215.35ZM494,232.39q12.42,72.19,24.83,144.39l61.06-10.5c-3.16-18.92-6.3-37.68-9.43-56.44s-6.25-37.67-9.41-56.5-6.22-37.5-9.47-56.49ZM744.54,339.21a34,34,0,1,0-33.93-34A34,34,0,0,0,744.54,339.21Z" transform="translate(-5.67 -0.4)"/><path class="cls-1" d="M57.51,280.42c-.5-2.87-1-5.5-1.41-8.14q-3.16-18.64-6.31-37.3l-6.21-36.77Q40.25,178.59,36.93,159,33.81,140.49,30.7,122c-2-11.61-3.92-23.23-5.94-34.83A2.68,2.68,0,0,1,26,84.09Q51.57,66,77.05,47.75c.47-.34,1-.64,1.71-1.13C82.63,68.4,86.47,90,90.34,111.73c20.8-13.36,43.11-17.46,67-11.61a82,82,0,0,1,41.39,24.72,83.58,83.58,0,0,1-8.42,120.68,83.24,83.24,0,0,1-74.11,16.55l1.32,8Zm41.67-99.37a37.89,37.89,0,1,0,37.89-37.8A37.71,37.71,0,0,0,99.18,181.05Z" transform="translate(-5.67 -0.4)"/><path class="cls-1" d="M471.9,201.07c2.66,15.58,5.27,30.81,7.91,46.28L418.5,257.89Q402.26,163.23,386,68.61l56.82-36.73c1.07,6.18,2.1,12.08,3.16,18.19,22.5-14.07,46.33-17.5,71.53-9.51a81.66,81.66,0,0,1,39.86,27.72,83.19,83.19,0,0,1,8.06,91,82.08,82.08,0,0,1-39.57,37C508.56,204,490.61,205.57,471.9,201.07ZM454,119.81a37.86,37.86,0,1,0,37.92-37.68A37.69,37.69,0,0,0,454,119.81Z" transform="translate(-5.67 -0.4)"/><path class="cls-1" d="M224.68,151.44c.25-45.49,37-84.06,84.71-83.49a83.57,83.57,0,0,1,82.43,85.16c-.82,44.5-37.31,82.29-84.2,82A83.78,83.78,0,0,1,224.68,151.44Zm117.52.21a33.94,33.94,0,1,0-34.07,33.8A33.88,33.88,0,0,0,342.2,151.65Z" transform="translate(-5.67 -0.4)"/><path class="cls-1" d="M643.7,259.84l15.91,92.57L598.15,363c-.31-1.61-.61-3.11-.86-4.61q-5.09-29.64-10.17-59.28-6-34.74-12-69.47-3.9-22.69-7.81-45.38a2,2,0,0,1,.91-2.23q27-19.7,53.89-39.43c.33-.24.69-.44,1.27-.81,3.85,22.35,7.67,44.53,11.51,66.88l28.43-5L684.9,252.5Z" transform="translate(-5.67 -0.4)"/><path class="cls-1" d="M666.87,40.14l61-10.49L765,245l-61.06,10.5Q685.37,147.82,666.87,40.14Z" transform="translate(-5.67 -0.4)"/><path class="cls-1" d="M494,232.39l57.58-35.54c3.25,19,6.31,37.75,9.47,56.49s6.27,37.67,9.41,56.5,6.27,37.52,9.43,56.44l-61.06,10.5Q506.38,304.45,494,232.39Z" transform="translate(-5.67 -0.4)"/><path class="cls-1" d="M744.54,339.21a34,34,0,1,1,34.14-33.94A34,34,0,0,1,744.54,339.21Z" transform="translate(-5.67 -0.4)"/><path d="M99.18,181.05a37.89,37.89,0,1,1,37.67,38A37.83,37.83,0,0,1,99.18,181.05Z" transform="translate(-5.67 -0.4)"/><path d="M454,119.81a37.86,37.86,0,1,1,37.56,38.06A37.69,37.69,0,0,1,454,119.81Z" transform="translate(-5.67 -0.4)"/><path class="cls-2" d="M342.2,151.65a33.94,33.94,0,1,1-33.6-34.1A33.87,33.87,0,0,1,342.2,151.65Z" transform="translate(-5.67 -0.4)"/></svg>